<svg width="530" height="662" viewBox="0 0 530 662" fill="none" xmlns="http://www.w3.org/2000/svg">
<path d="M-56.8634 -181.971C-82.4623 -242.713 -209.107 -272.708 -188.208 -151.766C-184.781 -131.936 -184.436 -97.7901 -188.208 -56.2274C-191.663 -18.1535 -259.296 2.67944 -280.057 51.8749C-312.616 129.028 -190.879 182.804 -210.251 223.362C-235.625 276.483 -313.318 299.531 -356.292 328.594C-396.747 355.953 -422.516 399.852 -432.41 444.984C-449.768 524.164 -418.267 607.142 -331.492 611.27C-288.053 613.337 -230.763 595.644 -158.816 547.825C-126.649 526.444 -98.2836 508.825 -73.0744 494.577C-8.19043 457.907 -25.6347 544.646 51.5186 547.825C95.4803 549.636 141.396 474.754 176.154 514.696C200.869 543.098 229.231 577.559 269.734 612.987C340.864 675.206 429.797 684.367 442.376 595.568C448.314 553.65 437.237 489.902 399.241 399.602C374.926 341.815 435.407 343.853 442.376 269.801C449.344 195.75 392.36 161.6 433.611 130.951L434.437 130.337C465.879 106.979 499.413 82.0667 517.727 34.2172C533.502 -7.00035 531.995 -47.8235 517.727 -79.1921C502.457 -112.763 472.57 -135.505 433.611 -136.312C394.52 -137.122 346.294 -115.847 294.533 -61.2702C260.406 -25.2865 237.294 -109.015 176.154 -100.456C115.013 -91.8969 106.515 -11.1095 69.8885 -34.541C6.26453 -75.2435 -26.8825 -110.832 -56.8634 -181.971Z" stroke="#525252" stroke-opacity="0.28" stroke-width="1.80427"/>
<path d="M66.6337 149.359C62.7379 140.034 44.582 142.481 43.6632 152.587C42.6171 164.094 48.9945 179.088 48.2573 190.622C46.8339 212.891 38.2074 219.23 21.0307 230.967C14.874 235.167 10.9523 241.907 9.44655 248.835C6.80487 260.991 11.5989 273.729 24.8048 274.363C31.4156 274.68 40.1344 271.964 51.0836 264.623C55.9791 261.341 60.2958 258.636 64.1323 256.449C80.8334 246.165 96.377 254.223 102.061 259.537C105.822 263.897 110.139 269.188 116.303 274.627C127.128 284.178 143.52 282.927 142.576 271.952C141.242 256.449 112.218 198.577 142.576 188.486C156.678 183.799 156.215 173.181 154.044 168.365C151.72 163.212 147.172 159.72 141.242 159.597C135.293 159.472 125.438 168.365 120.077 171.117C100.285 181.273 82.6247 186.524 66.6337 149.359Z" stroke="#525252" stroke-opacity="0.28" stroke-width="1.80427"/>
<path d="M-167.032 -125.306C-185.58 -235.405 -69.8479 -207.959 -46.3788 -152.275C-17.6455 -84.1982 14.1204 -52.2923 73.8105 -16.177C107.38 5.01736 115.458 -68.7472 171.441 -76.7646C227.424 -84.782 248.812 -8.8022 280.134 -41.5352C327.77 -91.1792 372.063 -110.22 407.842 -109.018C443.389 -108.067 470.642 -87.0279 484.411 -56.1375C497.268 -27.2511 498.329 10.2359 483.334 47.9478C463.764 92.7742 435.502 120.676 406.799 143.489C369.309 171.869 420.806 203.215 413.981 270.633C407.155 338.051 351.506 336.01 373.137 388.155C407.148 469.82 416.834 527.342 411.089 565.086C399.385 645.638 317.985 637.001 252.657 580.268C215.196 547.908 188.658 516.605 165.41 491.229C133.436 455.086 91.2659 523.459 50.821 522.107C-19.8769 519.547 -4.45206 440.857 -63.8864 474.36C-87.2215 487.463 -113.379 503.548 -142.948 522.986C-209.611 566.436 -262.175 581.384 -301.459 578.407C-380.345 574.338 -408.883 498.535 -392.913 426.218C-383.734 384.878 -360.059 344.691 -322.969 319.61C-282.306 292.109 -210.831 270.568 -187.614 220.228C-169.954 182.808 -280.849 133.282 -251.348 62.4889C-232.583 17.1319 -171.166 -2.42021 -167.975 -37.5796C-164.502 -75.8501 -164.382 -107.2 -167.032 -125.306Z" stroke="#525252" stroke-opacity="0.28" stroke-width="1.80427"/>
<path d="M-144.908 -97.7313C-161.078 -196.626 -56.427 -171.821 -35.1222 -121.377C-7.67804 -56.5923 22.6609 -28.4734 78.3303 2.9384C108.794 21.8263 116.44 -44.673 167.184 -52.1221C217.928 -59.5711 237.561 8.41145 266.032 -20.9635C309.472 -65.5119 349.768 -82.2572 382.183 -80.6686C414.266 -79.5764 438.845 -60.3096 451.092 -32.2019C462.52 -5.8931 463.133 28.134 448.94 62.2163C428.302 103.451 405.783 134.225 380.099 156.237C346.424 182.254 392.359 210.693 385.686 271.255C379.013 331.818 328.277 329.781 347.193 376.113C377.169 448.878 385.449 499.986 379.906 533.434C369.094 605.474 295.345 597.391 235.916 546.329C201.552 517.145 176.874 489.102 155.129 466.834C125.985 434.608 87.6218 496.248 50.7527 495.359C-13.3864 493.424 -0.00366211 423.041 -53.9013 453.268C-75.3284 465.183 -99.2396 479.681 -126.167 497.112C-187.451 536.05 -235.21 548.206 -270.281 544.331C-341.163 540.336 -366.697 471.957 -352.138 406.741C-343.688 369.329 -322.14 332.987 -288.471 310.266C-250.178 284.419 -185.024 264.456 -163.999 217.067C-148.077 182.907 -247.966 137.797 -221.568 73.5962C-204.826 32.2275 -149.716 14.0217 -146.793 -18.1069C-143.623 -52.9587 -143.038 -81.4091 -144.908 -97.7313Z" stroke="#525252" stroke-opacity="0.28" stroke-width="1.80427"/>
<path d="M-123.739 -71.2696C-137.554 -159.322 -43.824 -137.066 -24.6505 -91.68C1.54758 -29.9583 30.507 -5.52248 82.2424 21.3025C109.647 37.9532 116.874 -21.5231 162.456 -28.4304C208.039 -35.3377 225.948 24.8962 251.612 -1.22801C290.924 -40.8432 327.285 -55.3551 356.386 -53.3746C385.054 -52.138 406.998 -34.5741 417.742 -9.1474C427.757 14.679 427.924 45.3697 414.511 75.9463C392.77 113.739 375.961 147.484 353.256 168.772C323.345 192.519 363.788 218.154 357.257 272.083C350.727 326.012 304.825 323.971 321.055 364.661C347.041 428.792 353.93 473.674 348.579 502.948C338.642 566.74 272.431 559.182 218.807 513.605C187.487 487.49 164.633 462.606 144.355 443.362C117.996 414.936 83.3812 470.067 50.0309 469.638C-7.64847 468.32 3.71255 405.986 -44.7318 433.047C-64.2839 443.818 -85.9861 456.78 -110.314 472.269C-166.312 506.838 -209.341 516.249 -240.253 511.464C-303.239 507.529 -325.809 446.325 -312.639 387.972C-304.905 354.353 -285.451 321.723 -255.15 301.28C-219.167 276.996 -160.234 258.539 -141.368 213.932C-127.159 182.909 -216.197 142.051 -192.86 84.2101C-178.116 46.6801 -129.228 29.7555 -126.569 0.541595C-123.697 -31.0177 -122.647 -56.6718 -123.739 -71.2696Z" stroke="#525252" stroke-opacity="0.28" stroke-width="1.80427"/>
<path d="M-101.623 -44.8088C-113.06 -122.015 -30.4166 -102.31 -13.4085 -61.9816C11.4975 -3.31792 39.0266 17.4327 86.7367 39.6677C111.033 54.0802 117.828 1.62885 158.168 -4.737C198.509 -11.1029 214.662 41.3795 237.474 18.5071C272.588 -16.1734 304.949 -28.4504 330.685 -26.0771C355.887 -24.6956 375.156 -8.83449 384.378 13.911C392.963 35.2549 392.682 62.6087 380.073 89.6788C357.268 124.029 346.2 160.757 326.514 181.323C300.42 202.802 335.299 225.632 328.922 272.925C322.545 320.218 281.56 318.173 295.074 353.218C317.025 408.711 322.508 447.364 317.359 472.462C308.316 528.003 249.759 520.969 202.037 480.88C173.816 457.835 152.825 436.11 134.051 419.893C110.524 395.268 79.7184 443.888 49.946 443.919C-1.1712 443.22 8.14771 388.938 -34.7572 412.831C-52.3998 422.458 -71.8546 433.885 -93.539 447.431C-144.153 477.628 -182.375 484.292 -209.074 478.594C-264.052 474.718 -283.617 420.691 -271.859 369.203C-264.854 339.378 -247.53 310.461 -220.651 292.296C-187.04 269.573 -134.433 252.622 -117.759 210.794C-105.29 182.909 -183.317 146.302 -163.084 94.8226C-150.364 61.1315 -107.785 45.4874 -105.394 19.1881C-102.826 -9.07851 -101.311 -31.9358 -101.623 -44.8088Z" stroke="#525252" stroke-opacity="0.28" stroke-width="1.80427"/>
<path d="M-79.5182 -17.1028C-88.5781 -83.2898 -17.0231 -66.1798 -2.18095 -31C21.4288 24.4726 47.523 41.4921 91.2026 59.088C112.391 71.2302 118.752 25.921 153.849 20.111C188.946 14.301 203.342 58.9148 223.3 39.3452C254.215 9.67689 282.576 -0.33815 304.945 2.42247C326.68 3.94562 343.274 18.0683 350.975 38.0815C358.13 56.8951 357.403 80.8507 345.599 104.354C321.738 135.184 316.403 174.809 299.736 194.607C277.46 213.769 306.775 233.743 300.553 274.295C294.331 314.846 258.264 312.802 269.063 342.125C286.98 388.856 291.059 421.194 286.113 442.061C277.964 489.227 227.064 482.733 185.246 448.22C160.126 428.297 141.001 409.779 123.732 396.626C103.038 375.856 76.0429 417.857 49.8499 418.348C5.29662 418.269 12.5745 372.16 -24.7895 392.832C-40.5215 401.293 -57.7277 411.159 -76.7679 422.732C-121.994 448.49 -155.408 452.392 -177.893 445.795C-224.864 441.988 -241.423 395.258 -231.078 350.75C-224.803 324.785 -209.609 299.646 -186.153 283.8C-154.92 262.689 -108.641 247.283 -94.1602 208.328C-83.43 183.643 -150.446 151.37 -133.317 106.367C-122.62 76.5904 -86.3491 62.2621 -84.2278 38.9366C-81.9628 14.026 -79.9848 -5.98336 -79.5182 -17.1028Z" stroke="#525252" stroke-opacity="0.28" stroke-width="1.80427"/>
<path d="M-58.37 9.35797C-65.0712 -45.9772 -4.45615 -31.4187 8.25095 -1.29883C30.6139 51.1211 55.3278 64.4525 95.0681 77.454C113.191 87.3567 119.133 49.0755 149.06 43.8068C178.986 38.538 191.655 75.3959 208.802 59.0798C235.582 34.3488 260 26.5704 279.049 29.725C297.363 31.3936 311.317 43.8132 317.512 61.1446C323.252 77.4751 322.077 98.0928 311.054 118.088C286.086 145.476 286.474 188.096 272.792 207.174C254.286 224.067 278.099 241.237 272.019 275.148C265.939 309.06 234.715 307.012 242.822 330.686C256.742 368.774 259.425 394.878 254.672 411.567C247.399 450.477 204.051 444.507 168.048 415.483C145.977 398.632 128.678 383.275 112.879 373.151C94.9751 356.185 71.7341 391.672 49.066 392.624C10.9839 393.165 16.2358 355.113 -15.6652 372.617C-29.5192 379.932 -44.5128 388.262 -60.9485 397.891C-100.881 419.276 -129.557 420.426 -147.874 412.914C-186.935 409.165 -200.524 369.615 -191.57 331.975C-186.012 309.805 -172.916 288.38 -152.834 274.814C-123.914 255.262 -83.8665 241.362 -71.5481 205.184C-62.5348 183.637 -118.679 155.617 -104.617 116.977C-95.9219 91.0394 -65.8847 77.9911 -64.0278 57.5807C-62.0616 35.9636 -59.6163 18.7518 -58.37 9.35797Z" stroke="#525252" stroke-opacity="0.28" stroke-width="1.80427"/>
<path d="M-36.2921 35.8171C-40.6177 -8.65773 8.89751 3.34776 19.4359 28.4053C40.4916 77.7834 63.7585 87.4218 99.453 95.8217C114.464 103.482 119.969 72.2339 144.646 67.506C169.324 62.7781 180.232 91.8728 194.521 78.8129C217.095 59.0233 237.507 53.4846 253.186 57.0354C268.03 58.8504 279.307 69.567 283.98 84.2157C288.29 98.0625 286.67 115.341 276.458 131.826C250.451 155.773 256.559 201.411 245.897 219.775C231.211 234.399 249.459 248.762 243.537 276.029C237.616 303.296 211.318 301.243 216.712 319.262C226.598 348.698 227.88 368.562 223.332 381.067C216.955 411.713 181.272 406.266 151.181 382.736C132.218 368.959 116.79 356.766 102.504 349.675C87.4375 336.517 68.0123 365.485 48.9292 366.9C17.419 368.062 20.6316 338.074 -5.72189 352.407C-17.6611 358.577 -30.4021 365.371 -44.1898 373.053C-78.722 390.061 -102.583 388.453 -116.686 380.021C-147.734 376.329 -158.316 343.964 -150.778 313.197C-145.951 294.823 -134.988 277.115 -118.334 265.829C-91.8037 247.833 -58.0943 235.438 -47.9712 202.03C-40.6985 183.622 -85.8234 159.856 -74.8658 127.581C-68.1947 105.485 -44.4699 93.715 -42.8823 76.22C-41.2201 57.8973 -38.3145 43.4842 -36.2921 35.8171Z" stroke="#525252" stroke-opacity="0.28" stroke-width="1.80427"/>
<path d="M-14.8303 62.2737C-16.7995 28.6734 21.8828 38.1234 30.3098 58.1143C50.1813 104.467 72.1371 110.404 103.989 114.191C115.969 119.606 121.07 95.3979 140.632 91.2101C160.194 87.0223 169.402 108.342 180.912 98.5431C199.404 83.7016 215.92 80.4075 228.314 84.3578C239.769 86.3206 248.428 95.334 251.604 107.298C254.505 118.66 252.43 132.597 242.969 145.569C215.765 166.076 227.645 214.767 219.948 232.424C209.003 244.779 221.781 256.333 215.983 276.947C210.184 297.561 188.668 295.502 191.374 307.856C197.275 328.625 197.158 342.237 192.789 350.55C187.273 372.921 159.062 367.996 134.718 349.966C118.757 339.265 105.114 330.24 92.2574 326.19C79.9458 316.846 64.2303 339.289 48.6273 341.168C23.5178 342.954 24.7047 321.044 3.75559 332.202L3.17651 332.491C-6.73912 337.428 -17.1085 342.591 -28.1093 348.215C-57.4343 360.839 -76.6111 356.463 -86.5724 347.103C-109.772 343.467 -117.403 318.293 -111.239 294.406C-107.117 279.833 -98.2259 265.845 -84.9082 256.84C-60.6156 240.397 -33.059 229.505 -25.0763 198.86C-19.5054 183.592 -53.8515 164.081 -45.9411 138.178C-41.2597 119.923 -23.7221 109.43 -22.395 94.8511C-21.0277 79.8245 -17.643 68.2122 -14.8303 62.2737Z" stroke="#525252" stroke-opacity="0.28" stroke-width="1.80427"/>
<path d="M7.19423 90.014C7.59921 67.4359 35.1467 74.2886 41.397 89.1243C59.9352 132.241 80.4152 134.453 108.183 133.611C117.039 136.757 121.698 119.696 135.992 116.067C150.286 112.439 157.723 125.891 166.365 119.395C180.632 109.567 193.126 108.531 202.138 112.863C210.113 114.964 216.088 122.234 217.74 131.461C219.21 140.288 216.694 150.821 208.055 160.222C179.854 177.197 197.426 228.718 192.755 245.587C185.637 255.618 192.843 264.312 187.211 278.183C181.579 292.053 165.01 289.997 165.004 296.632C166.872 308.644 165.355 315.946 161.197 320.032C156.584 334.029 136.064 329.648 117.656 317.198C104.82 309.621 93.0645 303.804 81.736 302.812C72.2742 297.321 60.3901 313.14 48.3877 315.476C29.8739 317.877 29.0237 304.139 13.6417 312.074C5.47652 315.93 -2.81894 319.623 -11.3749 323.384C-35.2677 331.568 -49.6116 324.445 -55.3516 314.2C-70.5199 310.636 -75.1397 292.766 -70.3962 275.864C-67.0105 265.156 -60.2615 254.949 -50.3838 248.267C-28.5119 233.45 -7.32092 224.11 -1.54079 196.366C2.28474 184.305 -21.0131 169.137 -16.2127 149.72C-13.5585 135.388 -2.34663 126.219 -1.29018 114.621C-0.228233 102.958 3.61106 94.1976 7.19423 90.014Z" stroke="#525252" stroke-opacity="0.28" stroke-width="1.80427"/>
<path d="M29.5443 116.508C32.3125 104.872 48.8134 109.15 52.9052 118.876C70.1396 158.854 89.1763 157.356 112.915 151.898C118.673 152.788 122.897 142.819 131.967 139.74C141.036 136.661 146.72 142.296 152.518 139.081C162.598 134.231 171.104 135.444 176.762 140.165C181.285 142.409 184.596 147.956 184.734 154.473C184.781 160.789 181.823 167.951 173.992 173.811C144.763 187.299 168.021 241.746 166.355 257.865C163.039 265.599 164.707 271.46 159.234 278.635C153.761 285.809 142.095 283.753 139.39 284.701C137.246 288.006 134.334 289.032 130.382 288.912C126.66 294.589 113.77 290.742 101.246 283.829C91.5031 279.351 81.6123 276.72 71.79 278.774C65.1526 277.115 57.0665 286.362 48.6325 289.157C36.6595 292.177 33.7808 286.558 23.9199 291.296C17.661 293.995 11.6078 296.138 5.68756 297.939C-12.8292 301.715 -22.3813 291.838 -23.9275 280.69C-31.1223 277.191 -32.7508 266.566 -29.4158 256.593C-26.7585 249.717 -22.1324 243.26 -15.6658 238.879C3.82427 225.653 18.7068 217.842 22.3021 192.933C24.3955 184.046 12.0635 173.177 13.7749 160.185C14.4151 149.736 19.3457 141.868 20.1341 133.219C20.8934 124.884 25.1899 118.95 29.5443 116.508Z" stroke="#525252" stroke-opacity="0.28" stroke-width="1.80427"/>
</svg>
